<svg width="30" height="29" viewBox="0 0 30 29" fill="none" xmlns="http://www.w3.org/2000/svg">
<path d="M4.01373 12.0833C3.49415 12.0833 3.08331 11.6725 3.08331 11.1529V8.36166C3.08331 5.08707 5.75373 2.41666 9.02831 2.41666H11.8196C12.3391 2.41666 12.75 2.82749 12.75 3.34707C12.75 3.86666 12.3391 4.27749 11.8196 4.27749H9.02831C6.76873 4.27749 4.94415 6.11416 4.94415 8.36166V11.1529C4.94415 11.6725 4.52123 12.0833 4.01373 12.0833Z" fill="#545454"/>
<path d="M26.3196 12.0833C25.8121 12.0833 25.3891 11.6725 25.3891 11.1529V8.36166C25.3891 6.10207 23.5525 4.27749 21.305 4.27749H18.5137C17.9941 4.27749 17.5833 3.85457 17.5833 3.34707C17.5833 2.83957 17.9941 2.41666 18.5137 2.41666H21.305C24.5796 2.41666 27.25 5.08707 27.25 8.36166V11.1529C27.25 11.6725 26.8391 12.0833 26.3196 12.0833Z" fill="#545454"/>
<path d="M21.3049 26.5833H19.6254C19.1179 26.5833 18.6949 26.1725 18.6949 25.6529C18.6949 25.1454 19.1058 24.7225 19.6254 24.7225H21.3049C23.5645 24.7225 25.3891 22.8858 25.3891 20.6383V18.9708C25.3891 18.4633 25.7999 18.0404 26.3195 18.0404C26.827 18.0404 27.2499 18.4512 27.2499 18.9708V20.6383C27.2499 23.9129 24.5795 26.5833 21.3049 26.5833Z" fill="#545454"/>
<path d="M11.8196 26.5833H9.02831C5.75373 26.5833 3.08331 23.9129 3.08331 20.6383V17.8471C3.08331 17.3275 3.49415 16.9167 4.01373 16.9167C4.53331 16.9167 4.94415 17.3275 4.94415 17.8471V20.6383C4.94415 22.8979 6.78081 24.7225 9.02831 24.7225H11.8196C12.3271 24.7225 12.75 25.1333 12.75 25.6529C12.75 26.1725 12.3391 26.5833 11.8196 26.5833Z" fill="#545454"/>
<path d="M22.9724 13.5695H21.3291H9.00411H7.36078C6.84119 13.5695 6.43036 13.9925 6.43036 14.5C6.43036 15.0075 6.84119 15.4304 7.36078 15.4304H9.00411H21.3291H22.9724C23.492 15.4304 23.9029 15.0075 23.9029 14.5C23.9029 13.9925 23.492 13.5695 22.9724 13.5695Z" fill="#545454"/>
<path d="M9.00415 16.8441V17.2429C9.00415 19.2487 10.6233 20.8679 12.6291 20.8679H17.7042C19.71 20.8679 21.3292 19.2487 21.3292 17.2429V16.8441C21.3292 16.6991 21.2204 16.5904 21.0754 16.5904H9.2579C9.1129 16.5904 9.00415 16.6991 9.00415 16.8441Z" fill="#545454"/>
<path d="M9.00415 12.1558V11.757C9.00415 9.75122 10.6233 8.13205 12.6291 8.13205H17.7042C19.71 8.13205 21.3292 9.75122 21.3292 11.757V12.1558C21.3292 12.3008 21.2204 12.4096 21.0754 12.4096H9.2579C9.1129 12.4096 9.00415 12.3008 9.00415 12.1558Z" fill="#545454"/>
</svg>
