<svg width="15" height="8" viewBox="0 0 15 8" fill="none" xmlns="http://www.w3.org/2000/svg">
<path d="M11.9091 0C12.5353 0 13.1137 0.2672 13.462 0.7124L14.7656 2.3752C14.919 2.57126 15.0006 2.80185 15 3.0376V5.6876C15.0009 5.86517 14.9321 6.03788 14.8047 6.17827C14.6773 6.31867 14.4985 6.41868 14.2969 6.4624L13.0809 6.7252C12.9935 7.0847 12.7638 7.40759 12.4304 7.63971C12.097 7.87182 11.6803 7.99904 11.25 8C10.3819 8 9.65718 7.4876 9.44812 6.8L5.08312 6.8C4.87406 7.4876 4.14937 8 3.28125 8C2.41312 8 1.68844 7.4876 1.47937 6.8H0.9375C0.424687 6.8 0 6.4376 0 6V4.5376C0.000448227 4.18106 0.140511 3.83487 0.397931 3.55404C0.655352 3.27321 1.01537 3.07384 1.42078 2.9876L3.95531 2.4376L5.78625 0.5752C5.9614 0.395351 6.18078 0.25059 6.42883 0.151185C6.67688 0.0517797 6.94752 0.00016452 7.22156 0L11.9091 0ZM11.9091 0.8L9.84374 0.8V2.4L13.6523 2.4L12.6853 1.1624V1.15C12.6004 1.04115 12.4849 0.952122 12.3495 0.891001C12.214 0.829879 12.0623 0.798599 11.9091 0.8ZM8.90625 0.8L7.22156 0.8C6.94359 0.8 6.68156 0.9048 6.5039 1.0876L5.21484 2.4H8.90625V0.8ZM14.0625 3.2L4.27734 3.2L1.64062 3.7624C1.4383 3.80524 1.25882 3.90508 1.13122 4.04575C1.00363 4.18643 0.935372 4.35972 0.9375 4.5376V6H1.47937C1.68844 5.3124 2.41312 4.8 3.28125 4.8C4.14937 4.8 4.87406 5.3124 5.08312 6L9.44812 6C9.65718 5.3124 10.3819 4.8 11.25 4.8C12.0811 4.8 12.7791 5.2688 13.0223 5.9124L14.0625 5.688V3.2ZM11.25 5.6C10.7264 5.6 10.3125 5.9532 10.3125 6.4C10.3125 6.8468 10.7264 7.2 11.25 7.2C11.7736 7.2 12.1875 6.8468 12.1875 6.4C12.1875 5.9532 11.7736 5.6 11.25 5.6ZM3.28125 5.6C2.75766 5.6 2.34375 5.9532 2.34375 6.4C2.34375 6.8468 2.75766 7.2 3.28125 7.2C3.80484 7.2 4.21875 6.8468 4.21875 6.4C4.21875 5.9532 3.80484 5.6 3.28125 5.6Z" fill="#545454"/>
</svg>
