<svg width="25" height="15" viewBox="0 0 25 15" fill="none" xmlns="http://www.w3.org/2000/svg">
<path d="M1.17188 0H23.8281C24.1389 0 24.437 0.123465 24.6568 0.343234C24.8765 0.563003 25 0.861074 25 1.17188C25 1.48268 24.8765 1.78075 24.6568 2.00052C24.437 2.22029 24.1389 2.34375 23.8281 2.34375H1.17188C0.861074 2.34375 0.563003 2.22029 0.343234 2.00052C0.123465 1.78075 0 1.48268 0 1.17188C0 0.861074 0.123465 0.563003 0.343234 0.343234C0.563003 0.123465 0.861074 0 1.17188 0ZM4.6875 7.42188C4.6875 7.11107 4.81097 6.813 5.03073 6.59323C5.2505 6.37347 5.54857 6.25 5.85938 6.25H19.1406C19.4514 6.25 19.7495 6.37347 19.9693 6.59323C20.189 6.813 20.3125 7.11107 20.3125 7.42188C20.3125 7.73268 20.189 8.03075 19.9693 8.25051C19.7495 8.47028 19.4514 8.59375 19.1406 8.59375H5.85938C5.54857 8.59375 5.2505 8.47028 5.03073 8.25051C4.81097 8.03075 4.6875 7.73268 4.6875 7.42188ZM9.375 13.6719C9.375 13.3611 9.49846 13.063 9.71823 12.8432C9.938 12.6235 10.2361 12.5 10.5469 12.5H14.4531C14.7639 12.5 15.062 12.6235 15.2818 12.8432C15.5015 13.063 15.625 13.3611 15.625 13.6719C15.625 13.9827 15.5015 14.2807 15.2818 14.5005C15.062 14.7203 14.7639 14.8438 14.4531 14.8438H10.5469C10.2361 14.8438 9.938 14.7203 9.71823 14.5005C9.49846 14.2807 9.375 13.9827 9.375 13.6719Z" fill="#FF5722"/>
</svg>
