<svg width="12" height="12" viewBox="0 0 12 12" fill="none" xmlns="http://www.w3.org/2000/svg">
<path d="M1.55557 11.5556C0.944458 11.5556 0.444458 11.0556 0.444458 10.4444V4.88889C0.444458 4.27778 0.944458 3.77778 1.55557 3.77778C2.16668 3.77778 2.66668 4.27778 2.66668 4.88889V10.4444C2.66668 11.0556 2.16668 11.5556 1.55557 11.5556Z" fill="#EF4637"/>
<path d="M6.00003 11.5556C5.38892 11.5556 4.88892 11.0556 4.88892 10.4444V1.55555C4.88892 0.944443 5.38892 0.444443 6.00003 0.444443C6.61114 0.444443 7.11114 0.944443 7.11114 1.55555V10.4444C7.11114 11.0556 6.61114 11.5556 6.00003 11.5556Z" fill="#EF4637"/>
<path d="M10.4445 11.5556C9.83337 11.5556 9.33337 11.0556 9.33337 10.4444V8.22222C9.33337 7.61111 9.83337 7.11111 10.4445 7.11111C11.0556 7.11111 11.5556 7.61111 11.5556 8.22222V10.4444C11.5556 11.0556 11.0556 11.5556 10.4445 11.5556Z" fill="#EF4637"/>
</svg>
