<svg width="16" height="17" viewBox="0 0 16 17" fill="none" xmlns="http://www.w3.org/2000/svg">
<path d="M1.33331 8.16667V14.8333C1.33331 15.2754 1.50891 15.6993 1.82147 16.0118C2.13403 16.3244 2.55795 16.5 2.99998 16.5H13C13.442 16.5 13.8659 16.3244 14.1785 16.0118C14.4911 15.6993 14.6666 15.2754 14.6666 14.8333V8.16667" stroke="#EF4637" stroke-linecap="round" stroke-linejoin="round"/>
<path d="M8 3.58333C8 2.80979 7.69271 2.06792 7.14573 1.52094C6.59875 0.973957 5.85688 0.666667 5.08333 0.666667C4.5308 0.666667 4.00089 0.88616 3.61019 1.27686C3.21949 1.66756 3 2.19747 3 2.75C3 3.30253 3.21949 3.83244 3.61019 4.22314C4.00089 4.61384 4.5308 4.83333 5.08333 4.83333H8M8 3.58333V4.83333M8 3.58333C8 2.80979 8.30729 2.06792 8.85427 1.52094C9.40125 0.973957 10.1431 0.666667 10.9167 0.666667C11.4692 0.666667 11.9991 0.88616 12.3898 1.27686C12.7805 1.66756 13 2.19747 13 2.75C13 3.02359 12.9461 3.2945 12.8414 3.54726C12.7367 3.80002 12.5833 4.02968 12.3898 4.22314C12.1964 4.41659 11.9667 4.57005 11.7139 4.67475C11.4612 4.77945 11.1903 4.83333 10.9167 4.83333H8" stroke="#EF4637" stroke-linejoin="round"/>
<path d="M8 8.16667V16.5M0.5 4.83333H15.5V8.16667H0.5V4.83333Z" stroke="#EF4637" stroke-linecap="round" stroke-linejoin="round"/>
</svg>
